<?xml version="1.0" encoding="UTF-8"?>
<svg xmlns="http://www.w3.org/2000/svg" xmlns:xlink="http://www.w3.org/1999/xlink" width="40px" height="40px" viewBox="0 0 30 30" version="1.1">
<g id="surface1">
<path style="fill:none;stroke-width:10;stroke-linecap:butt;stroke-linejoin:miter;stroke:rgb(14.901961%,73.333333%,64.313725%);stroke-opacity:1;stroke-miterlimit:4;" d="M 120.003255 62.5 C 120.003255 94.254557 94.254557 120.003255 62.5 120.003255 C 30.745443 120.003255 4.996745 94.254557 4.996745 62.5 C 4.996745 30.745443 30.745443 4.996745 62.5 4.996745 C 94.254557 4.996745 120.003255 30.745443 120.003255 62.5 Z M 120.003255 62.5 " transform="matrix(0.24,0,0,0.24,0,0)"/>
<path style="fill:none;stroke-width:10;stroke-linecap:round;stroke-linejoin:miter;stroke:rgb(14.901961%,73.333333%,64.313725%);stroke-opacity:1;stroke-miterlimit:4;" d="M 85.481771 85.481771 C 72.786458 98.177083 52.213542 98.177083 39.518229 85.481771 C 26.822917 72.786458 26.822917 52.213542 39.518229 39.518229 C 52.213542 26.822917 72.786458 26.822917 85.481771 39.518229 " transform="matrix(0.24,0,0,0.24,0,0)"/>
</g>
</svg>
